<?xml version="1.0" encoding="UTF-8" standalone="no"?>
<svg
   xmlns:dc="http://purl.org/dc/elements/1.1/"
   xmlns:cc="http://creativecommons.org/ns#"
   xmlns:rdf="http://www.w3.org/1999/02/22-rdf-syntax-ns#"
   xmlns:svg="http://www.w3.org/2000/svg"
   xmlns="http://www.w3.org/2000/svg"
   viewBox="0 0 983.91998 176.03999"
   height="176.03999"
   width="983.91998"
   xml:space="preserve"
   id="svg2"
   version="1.1"><metadata
     id="metadata8"><rdf:RDF><cc:Work
         rdf:about=""><dc:format>image/svg+xml</dc:format><dc:type
           rdf:resource="http://purl.org/dc/dcmitype/StillImage" /></cc:Work></rdf:RDF></metadata><defs
     id="defs6" /><g
     transform="matrix(1.3333333,0,0,-1.3333333,0,176.04)"
     id="g10"><g
       transform="scale(0.1)"
       id="g12"><path
         id="path14"
         style="fill:#211c1d;fill-opacity:1;fill-rule:nonzero;stroke:none"
         d="m 2579.61,280.41 -201.87,423.262 c -48.18,100.285 -97.67,213.586 -114.61,266.984 l -3.9,-3.906 c 6.51,-75.539 7.82,-170.605 9.12,-250.051 l 5.2,-436.289 H 2126.4 v 901.22 h 169.29 l 218.8,-440.185 c 41.67,-83.359 80.74,-190.136 92.46,-231.816 l 3.91,3.906 c -3.91,45.586 -13.02,174.512 -13.02,256.563 l -2.61,411.532 h 141.96 V 280.41 h -157.58" /><path
         id="path16"
         style="fill:#211c1d;fill-opacity:1;fill-rule:nonzero;stroke:none"
         d="m 3131.77,846.934 c -80.74,0 -125.02,-63.817 -125.02,-170.606 h 243.53 c 0,106.789 -46.88,170.606 -118.51,170.606 z M 3005.44,570.84 v -10.418 c 0,-91.164 33.87,-187.539 162.79,-187.539 61.21,0 114.61,22.137 164.1,65.117 l 56,-87.258 c -69.02,-58.613 -148.47,-87.254 -237.02,-87.254 -186.24,0 -303.45,134.141 -303.45,345.117 0,115.907 24.75,192.743 82.05,257.86 53.39,61.211 118.51,88.555 201.86,88.555 65.11,0 125.03,-16.922 181.02,-67.715 57.31,-52.09 85.96,-132.832 85.96,-286.512 V 570.84 h -393.31" /><path
         id="path18"
         style="fill:#211c1d;fill-opacity:1;fill-rule:nonzero;stroke:none"
         d="m 4160.57,277.809 h -134.14 l -80.75,303.441 c -20.84,78.145 -42.97,179.727 -42.97,179.727 h -2.61 c 0,0 -10.42,-65.118 -42.98,-186.231 l -79.44,-296.937 h -134.14 l -179.72,652.476 141.95,19.531 71.63,-319.074 c 18.23,-82.051 33.86,-173.203 33.86,-173.203 h 3.91 c 0,0 13.02,85.949 37.76,177.109 l 84.66,304.747 h 140.65 l 74.23,-296.934 c 27.35,-106.785 41.68,-187.539 41.68,-187.539 h 3.91 c 0,0 15.62,100.293 32.56,177.129 l 67.71,307.344 H 4346.8 L 4160.57,277.809" /><path
         id="path20"
         style="fill:#211c1d;fill-opacity:1;fill-rule:nonzero;stroke:none"
         d="m 4973.16,1060.52 h -82.05 V 775.305 h 76.85 c 78.13,0 119.81,10.418 147.16,37.761 24.74,24.746 40.37,62.52 40.37,109.395 0,91.169 -49.48,138.059 -182.33,138.059 z m 208.37,-780.11 -78.13,139.356 c -62.51,110.703 -104.19,173.203 -153.67,222.695 -16.94,16.934 -29.96,26.055 -58.62,27.355 V 280.41 h -147.15 v 901.22 h 274.79 c 201.86,0 293.02,-117.2 293.02,-257.86 0,-128.926 -83.35,-247.442 -224,-247.442 32.56,-16.933 92.46,-104.187 139.35,-179.726 L 5359.96,280.41 h -178.43" /><path
         id="path22"
         style="fill:#211c1d;fill-opacity:1;fill-rule:nonzero;stroke:none"
         d="m 5682.9,846.934 c -80.74,0 -125.02,-63.817 -125.02,-170.606 h 243.54 c 0,106.789 -46.89,170.606 -118.52,170.606 z M 5556.57,570.84 v -10.418 c 0,-91.164 33.87,-187.539 162.8,-187.539 61.21,0 114.6,22.137 164.1,65.117 l 55.99,-87.258 c -69.02,-58.613 -148.46,-87.254 -237.02,-87.254 -186.24,0 -303.45,134.141 -303.45,345.117 0,115.907 24.75,192.743 82.05,257.86 53.39,61.211 118.51,88.555 201.86,88.555 65.12,0 125.03,-16.922 181.03,-67.715 57.3,-52.09 85.95,-132.832 85.95,-286.512 V 570.84 h -393.31" /><path
         id="path24"
         style="fill:#211c1d;fill-opacity:1;fill-rule:nonzero;stroke:none"
         d="m 6218.13,266.09 c -144.57,0 -144.57,130.238 -144.57,186.234 v 561.306 c 0,89.87 -3.9,138.05 -13.02,192.75 l 147.17,32.56 c 10.42,-40.37 11.71,-95.07 11.71,-181.03 V 499.211 c 0,-88.566 3.91,-102.883 14.33,-118.516 7.81,-11.718 29.95,-18.234 46.88,-10.422 l 23.44,-88.554 c -26.04,-10.418 -53.39,-15.629 -85.94,-15.629" /><path
         id="path26"
         style="fill:#211c1d;fill-opacity:1;fill-rule:nonzero;stroke:none"
         d="m 6395.21,280.41 v 648.574 l 144.57,26.036 V 280.41 Z m 71.64,756.66 c -52.1,0 -92.47,42.98 -92.47,95.08 0,53.4 41.66,96.37 95.06,96.37 50.79,0 93.77,-41.68 93.77,-96.37 0,-52.1 -42.98,-95.08 -96.36,-95.08" /><path
         id="path28"
         style="fill:#211c1d;fill-opacity:1;fill-rule:nonzero;stroke:none"
         d="m 6949.99,263.488 c -179.72,0 -280,126.317 -280,338.602 0,239.629 143.26,354.238 290.42,354.238 71.63,0 123.72,-16.933 182.32,-71.621 l -71.62,-95.078 c -39.07,35.156 -72.93,50.793 -110.7,50.793 -45.58,0 -83.35,-23.449 -104.19,-66.418 -19.53,-40.371 -27.34,-101.582 -27.34,-183.633 0,-89.863 14.32,-147.168 44.27,-179.726 20.84,-23.438 52.09,-37.762 87.26,-37.762 45.59,0 89.86,22.137 132.84,65.117 l 67.72,-87.258 c -59.91,-59.902 -122.42,-87.254 -210.98,-87.254" /><path
         id="path30"
         style="fill:#211c1d;fill-opacity:1;fill-rule:nonzero;stroke:none"
         d="m 7290.7,398.594 c -2.34,0.781 -7.02,1.562 -12.22,1.562 h -7.81 v -29.375 h 7.29 c 9.35,0 13.51,1.035 16.38,3.633 2.6,2.598 4.16,6.504 4.16,10.918 0,6.77 -2.6,11.191 -7.8,13.262 z m 11.44,-89.434 c -4.16,7.281 -5.98,10.141 -10.14,17.93 -10.66,19.512 -14.04,24.961 -17.94,26.523 -1.04,0.528 -2.08,0.782 -3.39,0.782 V 309.16 h -21.31 v 108.418 h 40.3 c 19.24,0 31.98,-12.734 31.98,-31.719 0,-16.386 -10.92,-29.648 -24.18,-29.902 2.08,-1.816 3.12,-2.852 4.42,-4.676 6.24,-7.804 26,-42.121 26,-42.121 z m -18.99,131.035 c -41.07,0 -74.1,-34.316 -74.1,-77.48 0,-43.164 33.03,-77.996 74.1,-77.996 41.09,0 74.37,34.832 74.37,77.996 0,43.164 -33.28,77.48 -74.37,77.48 z m 0,-174.195 c -52.77,0 -96.2,42.629 -96.2,96.715 0,53.828 43.43,96.73 96.2,96.73 52.79,0 96.22,-42.902 96.22,-96.73 0,-54.086 -43.43,-96.715 -96.22,-96.715" /><path
         id="path32"
         style="fill:#40899c;fill-opacity:1;fill-rule:nonzero;stroke:none"
         d="m 815.113,336.125 c -178.961,0 -324.035,145.066 -324.035,324.043 0,178.914 145.074,323.965 324.035,323.965 178.891,0 323.967,-145.051 323.967,-323.965 0,-178.977 -145.076,-324.043 -323.967,-324.043 z M 1618.19,834.766 C 1541.77,1186.25 1120.24,1393.01 676.68,1296.57 233.164,1200.14 -64.4453,836.992 11.9648,485.508 88.3906,134.02 509.941,-72.75 953.445,23.6914 1397.01,120.121 1694.62,483.281 1618.19,834.766" /><path
         id="path34"
         style="fill:#a0dfd7;fill-opacity:1;fill-rule:nonzero;stroke:none"
         d="m 815.105,377.109 c -156.316,0 -283.035,126.719 -283.035,283.047 0,156.282 126.719,282.989 283.035,282.989 156.262,0 282.985,-126.707 282.985,-282.989 0,-156.328 -126.723,-283.047 -282.985,-283.047 z m 71.665,736.601 c -256.915,0 -465.215,-208.28 -465.215,-465.214 0,-256.934 208.3,-465.234 465.215,-465.234 256.95,0 465.25,208.3 465.25,465.234 0,256.934 -208.3,465.214 -465.25,465.214" /></g></g></svg>